<svg width="64" height="64" viewBox="0 0 64 64" fill="none" xmlns="http://www.w3.org/2000/svg">
  <defs>
    <linearGradient id="favBox" x1="8" y1="8" x2="56" y2="56" gradientUnits="userSpaceOnUse">
      <stop offset="0" stop-color="#FDE68A"/>
      <stop offset="0.55" stop-color="#FB7185"/>
      <stop offset="1" stop-color="#8B5CF6"/>
    </linearGradient>
  </defs>
  <rect x="6" y="10" width="52" height="46" rx="14" fill="url(#favBox)"/>
  <path d="M20 28C20 22.4772 24.4772 18 30 18H35C40.5228 18 45 22.4772 45 28V30H20V28Z" fill="white" fill-opacity="0.76"/>
  <path d="M32 18V47" stroke="#7C2D12" stroke-width="3.5" stroke-linecap="round"/>
  <path d="M20 34H45" stroke="#7C2D12" stroke-width="3.5" stroke-linecap="round"/>
  <path d="M24 21C21 17 22 12.8 26 11C30 9.2 33.4 12.1 32 18" stroke="#BE185D" stroke-width="3.5" stroke-linecap="round"/>
  <path d="M40 21C43 17 42 12.8 38 11C34 9.2 30.6 12.1 32 18" stroke="#BE185D" stroke-width="3.5" stroke-linecap="round"/>
</svg>
