<svg width="320" height="96" viewBox="0 0 320 96" fill="none" xmlns="http://www.w3.org/2000/svg">
  <defs>
    <linearGradient id="giftGrad" x1="24" y1="16" x2="296" y2="80" gradientUnits="userSpaceOnUse">
      <stop offset="0" stop-color="#F97316"/>
      <stop offset="0.5" stop-color="#EC4899"/>
      <stop offset="1" stop-color="#8B5CF6"/>
    </linearGradient>
    <linearGradient id="boxGrad" x1="12" y1="18" x2="78" y2="82" gradientUnits="userSpaceOnUse">
      <stop offset="0" stop-color="#FDE68A"/>
      <stop offset="1" stop-color="#FB7185"/>
    </linearGradient>
  </defs>
  <rect x="10" y="18" width="68" height="60" rx="18" fill="url(#boxGrad)"/>
  <path d="M28 40C28 33.3726 33.3726 28 40 28H48C54.6274 28 60 33.3726 60 40V42H28V40Z" fill="white" fill-opacity="0.72"/>
  <path d="M44 28V66" stroke="#7C2D12" stroke-width="4" stroke-linecap="round"/>
  <path d="M28 50H60" stroke="#7C2D12" stroke-width="4" stroke-linecap="round"/>
  <path d="M34 31C31 26 32.5 21.5 37 19.5C41.5 17.5 45 20.5 44 28" stroke="#BE123C" stroke-width="4" stroke-linecap="round"/>
  <path d="M54 31C57 26 55.5 21.5 51 19.5C46.5 17.5 43 20.5 44 28" stroke="#BE123C" stroke-width="4" stroke-linecap="round"/>
  <path d="M99 36.5H139" stroke="url(#giftGrad)" stroke-width="6" stroke-linecap="round"/>
  <text x="97" y="52" fill="#1F2937" font-family="Inter, Arial, sans-serif" font-size="34" font-weight="800">TopGifts</text>
  <text x="240" y="52" fill="url(#giftGrad)" font-family="Inter, Arial, sans-serif" font-size="34" font-weight="800">Today</text>
  <text x="100" y="74" fill="#6B7280" font-family="Inter, Arial, sans-serif" font-size="14" font-weight="600">Gift ideas people actually want to buy</text>
</svg>
